<?xml version="1.0" encoding="UTF-8"?>
<svg version="1.1" xmlns="http://www.w3.org/2000/svg" width="256" height="256">
<path d="M0 0 C3.91434987 1.66602494 7.07243387 3.92252838 10 7 C10.66386719 6.79503906 11.32773438 6.59007812 12.01171875 6.37890625 C12.89472656 6.10949219 13.77773437 5.84007812 14.6875 5.5625 C15.55761719 5.29566406 16.42773438 5.02882813 17.32421875 4.75390625 C23.21941966 3.09292264 28.58223687 2.44361996 34.6875 3.4375 C38.48833887 6.00563437 39.71757334 9.69471048 41 14 C41.32631638 16.556145 41.49785213 19.08831672 41.6484375 21.66015625 C42.0259906 24.17298191 42.71134289 25.4804812 44.125 27.5625 C46.58066549 32.0645534 46.20329268 35.12203661 45 40 C44.5875 40.845625 44.175 41.69125 43.75 42.5625 C42.70707424 45.95200872 43.83359441 47.82075998 45.1953125 50.99609375 C46.24584365 53.6122223 46.65155857 56.21246858 47 59 C47.75925781 59.03738281 48.51851562 59.07476562 49.30078125 59.11328125 C50.29464844 59.17902344 51.28851563 59.24476562 52.3125 59.3125 C53.29863281 59.37050781 54.28476563 59.42851563 55.30078125 59.48828125 C58.24384457 60.04622813 59.18182999 60.68540132 61 63 C60.67 63.66 60.34 64.32 60 65 C55.71 65 51.42 65 47 65 C47 67.64 47 70.28 47 73 C47.63808594 73.18175781 48.27617187 73.36351563 48.93359375 73.55078125 C49.75988281 73.80214844 50.58617187 74.05351563 51.4375 74.3125 C52.26121094 74.55613281 53.08492187 74.79976563 53.93359375 75.05078125 C54.61550781 75.36402344 55.29742187 75.67726563 56 76 C56.33 76.99 56.66 77.98 57 79 C59.5273082 79.8526466 59.5273082 79.8526466 62.5625 80.375 C74.09842746 83.04447082 83.99827302 90.79652984 90.375 100.8125 C100.16447526 118.5611237 99.10637083 136.88810586 95 156 C94.80664062 156.97453125 94.61328125 157.9490625 94.4140625 158.953125 C91.2333425 172.75001437 83.41230385 186.43422492 73 196 C72.34 196 71.68 196 71 196 C71 196.66 71 197.32 71 198 C61.5073303 203.58832592 54.52989613 207.00763827 43.3046875 205.98828125 C39.44216768 206.00197813 37.3526266 207.18763809 34 209 C31.75633004 207.87816502 29.92664134 206.60553445 28 205 C28 204.34 28 203.68 28 203 C27.34 203 26.68 203 26 203 C24.03698408 206.50538557 23.04097612 210.13351728 22 214 C21.34 214 20.68 214 20 214 C20.45261358 212.56068883 20.91232979 211.12361001 21.375 209.6875 C21.63023437 208.88699219 21.88546875 208.08648437 22.1484375 207.26171875 C23 205 23 205 25 202 C23.54618103 201.30300448 22.08677047 200.61766134 20.625 199.9375 C19.81289062 199.55464844 19.00078125 199.17179688 18.1640625 198.77734375 C17.44992188 198.52082031 16.73578125 198.26429688 16 198 C15.34 198.33 14.68 198.66 14 199 C6.83989501 199.46194226 6.83989501 199.46194226 3.5 197.625 C2 196 2 196 2 194 C1.02804688 194.32355469 0.05609375 194.64710938 -0.9453125 194.98046875 C-5.27172864 196.21052824 -9.39837939 196.34458709 -13.875 196.3125 C-14.67220459 196.30831055 -15.46940918 196.30412109 -16.29077148 196.29980469 C-22.01878866 196.18957158 -26.78611038 195.47245956 -32 193 C-32.8353125 192.64035156 -33.670625 192.28070313 -34.53125 191.91015625 C-36.70222417 190.96873072 -38.8550473 189.9989496 -41 189 C-44.08089673 191.77280706 -45.68775452 194.06326356 -47 198 C-47.66 198 -48.32 198 -49 198 C-49.33 198.99 -49.66 199.98 -50 201 C-53.5625 202.1875 -53.5625 202.1875 -57 203 C-57 203.66 -57 204.32 -57 205 C-56.01 204.67 -55.02 204.34 -54 204 C-53.67 204.66 -53.34 205.32 -53 206 C-56 207 -56 207 -59 206 C-61.69302186 207.21026925 -61.69302186 207.21026925 -64.5 208.9375 C-69.69020501 212 -69.69020501 212 -73 212 C-73.33 212.99 -73.66 213.98 -74 215 C-90.64125347 216.45906725 -102.42186998 215.63104024 -116.75 206.1875 C-134.17078486 189.25062583 -139.26628592 164.43705672 -140 141 C-140.05756289 121.59719519 -135.69332253 103.6609354 -125.25 87.25 C-117.23403902 79.23403902 -107.4395828 74.25542928 -96 74 C-82.56506448 74.47831184 -82.56506448 74.47831184 -78 76 C-78 73.69 -78 71.38 -78 69 C-78.56203125 69.16371094 -79.1240625 69.32742187 -79.703125 69.49609375 C-82.13059056 70.02864997 -84.26889681 70.09898681 -86.75 70.0625 C-87.54921875 70.05347656 -88.3484375 70.04445313 -89.171875 70.03515625 C-89.77515625 70.02355469 -90.3784375 70.01195313 -91 70 C-91 68.68 -91 67.36 -91 66 C-86.84055256 64.69507531 -83.34963091 63.87980295 -79 64 C-78.98582031 63.37996094 -78.97164062 62.75992188 -78.95703125 62.12109375 C-78.58899894 55.2876289 -77.05315 49.47718818 -74.63989258 43.12866211 C-73.33190727 39.57720687 -72.81873414 37.5781367 -74 34 C-74.74695877 24.33221931 -74.83420252 16.23860113 -69 8 C-66.45898779 5.45898779 -65.41700878 5.615815 -61.875 5.5 C-56.45308314 5.53863599 -52.37583343 6.94975958 -47.5 9.125 C-40.92694609 11.95747527 -35.42012925 12.38557073 -28.3125 11.6875 C-27.03826172 11.57269287 -27.03826172 11.57269287 -25.73828125 11.45556641 C-20.23903235 10.73621353 -17.64337206 9.39878682 -14 5 C-9.51368693 0.99789253 -6.23934623 -1.00275207 0 0 Z M44 79 C44.33 79.66 44.66 80.32 45 81 C46.98 80.67 48.96 80.34 51 80 C51 79.67 51 79.34 51 79 C48.69 79 46.38 79 44 79 Z " fill="#0B0809" transform="translate(152,17)"/>
<path d="M0 0 C5.07443213 0.45160804 8.76085214 1.42136184 13.2890625 3.77734375 C22.25303818 7.89369574 32.48467783 6.04631381 42.0390625 5.15234375 C41.98685547 6.68955078 41.98685547 6.68955078 41.93359375 8.2578125 C41.90544215 9.61847311 41.87814346 10.97915155 41.8515625 12.33984375 C41.82642578 13.01337891 41.80128906 13.68691406 41.77539062 14.38085938 C41.70982905 18.86090042 42.26301396 21.61272009 45.0390625 25.15234375 C48.27644266 27.31059719 49.1814786 27.40224257 52.9140625 27.33984375 C54.25017578 27.32630859 54.25017578 27.32630859 55.61328125 27.3125 C58.123827 27.24674796 58.123827 27.24674796 60.7265625 26.27734375 C63.0390625 26.15234375 63.0390625 26.15234375 64.6796875 27.3515625 C65.89534312 28.44300983 67.09564353 29.55176472 68.28125 30.67578125 C70.08193878 32.38368143 70.08193878 32.38368143 73.1015625 33.08984375 C76.85312939 34.44679347 78.34550705 36.49481641 80.7421875 39.59375 C81.97517875 41.28769216 81.97517875 41.28769216 84.0390625 42.15234375 C89.35976068 42.56162823 92.41232593 41.72275296 97.0390625 39.15234375 C99.4140625 38.46484375 99.4140625 38.46484375 101.0390625 38.15234375 C102.63044335 42.32971849 103.25184308 45.6839516 103.0390625 50.15234375 C101.9046875 50.44109375 100.7703125 50.72984375 99.6015625 51.02734375 C98.4259375 51.39859375 97.2503125 51.76984375 96.0390625 52.15234375 C95.5440625 53.14234375 95.5440625 53.14234375 95.0390625 54.15234375 C97.6790625 54.15234375 100.3190625 54.15234375 103.0390625 54.15234375 C103.0390625 56.79234375 103.0390625 59.43234375 103.0390625 62.15234375 C102.2346875 62.27609375 101.4303125 62.39984375 100.6015625 62.52734375 C99.7559375 62.73359375 98.9103125 62.93984375 98.0390625 63.15234375 C97.7090625 63.81234375 97.3790625 64.47234375 97.0390625 65.15234375 C99.0190625 65.64734375 99.0190625 65.64734375 101.0390625 66.15234375 C100.49182567 69.5269709 99.9841625 71.23469375 98.0390625 74.15234375 C94.9140625 74.33984375 94.9140625 74.33984375 92.0390625 74.15234375 C93.0290625 75.14234375 94.0190625 76.13234375 95.0390625 77.15234375 C94.06615131 79.80573791 93.27855222 80.990336 90.9140625 82.58984375 C87.44354747 83.26885756 85.78503852 82.25226107 82.6171875 80.91015625 C76.56474949 79.13110629 68.79876769 78.7073325 62.84375 80.99609375 C58.75662627 84.03576366 57.46226732 88.48739461 56.0390625 93.15234375 C50.7590625 93.15234375 45.4790625 93.15234375 40.0390625 93.15234375 C39.4615625 91.89421875 38.8840625 90.63609375 38.2890625 89.33984375 C36.00485118 84.81135488 33.99730713 83.01761463 29.3515625 80.96484375 C21.78044713 79.10777771 16.11711431 80.10145935 9.0390625 83.15234375 C7.5540625 83.64734375 7.5540625 83.64734375 6.0390625 84.15234375 C3.8515625 82.71484375 3.8515625 82.71484375 2.0390625 81.15234375 C2.3690625 80.16234375 2.6990625 79.17234375 3.0390625 78.15234375 C3.6990625 78.15234375 4.3590625 78.15234375 5.0390625 78.15234375 C5.0390625 77.49234375 5.0390625 76.83234375 5.0390625 76.15234375 C2.3990625 76.48234375 -0.2409375 76.81234375 -2.9609375 77.15234375 C-4.5234375 75.40234375 -4.5234375 75.40234375 -5.9609375 73.15234375 C-5.69588871 70.14845743 -5.12789475 69.319301 -2.9609375 67.15234375 C-4.415 66.96671875 -4.415 66.96671875 -5.8984375 66.77734375 C-6.9090625 66.57109375 -7.9196875 66.36484375 -8.9609375 66.15234375 C-10.4392601 63.19569856 -10.02126533 60.41004638 -9.9609375 57.15234375 C-7.6509375 57.15234375 -5.3409375 57.15234375 -2.9609375 57.15234375 C-2.9609375 56.49234375 -2.9609375 55.83234375 -2.9609375 55.15234375 C-6.9209375 54.65734375 -6.9209375 54.65734375 -10.9609375 54.15234375 C-11.79367122 43.69690925 -9.09570605 34.61409348 -2.9609375 26.15234375 C-2.19154069 23.9263176 -2.19154069 23.9263176 -1.9609375 22.15234375 C-3.2809375 22.15234375 -4.6009375 22.15234375 -5.9609375 22.15234375 C-8.32990698 15.04543532 -7.00116994 8.81746871 -3.9609375 2.15234375 C-1.9609375 0.15234375 -1.9609375 0.15234375 0 0 Z " fill="#FBFBFB" transform="translate(89.9609375,27.84765625)"/>
<path d="M0 0 C-0.99 1.98 -1.98 3.96 -3 6 C-2.13375 5.484375 -1.2675 4.96875 -0.375 4.4375 C3.5263911 2.77579638 4.99638057 2.74886893 9 4 C12.3125 5.4375 12.3125 5.4375 15 8 C15.53806826 10.5665002 15.68723424 12.94188618 15.69921875 15.5625 C16.061537 18.49868948 17.15710174 19.74378682 19 22 C19 22.66 19 23.32 19 24 C20.98 24.66 22.96 25.32 25 26 C25 26.33 25 26.66 25 27 C24.10539062 26.94199219 23.21078125 26.88398438 22.2890625 26.82421875 C13.03181674 26.47879913 6.13086723 27.30739435 -0.875 33.71484375 C-6.31258233 39.68834165 -7.41218677 45.02753522 -7.24609375 53 C-6.70902775 59.54709026 -4.31709864 64.6357674 0.14453125 69.4609375 C5.86745683 74.20795366 12.71774418 75.43946512 19.96875 75.53125 C22 76 22 76 23.28125 77.88671875 C24.28183508 80.82865642 24.09271398 82.06333117 23 85 C16.67996049 94.51504104 5.91892051 102.08922259 -4.8671875 105.609375 C-12.23652064 106.95906971 -20.72977896 107.34226404 -27.2734375 103.3046875 C-38.22103207 95.03207079 -43.48115074 83.26830453 -46 70 C-46.20367187 69.13890625 -46.40734375 68.2778125 -46.6171875 67.390625 C-50.68448519 48.11274828 -49.24583582 26.03354943 -39.7734375 8.53125 C-30.01958379 -5.39055001 -14.74671913 -4.96482728 0 0 Z " fill="#ED6B99" transform="translate(76,111)"/>
<path d="M0 0 C6.83130342 5.79175725 11.14728049 13.34128505 12.28857422 22.25341797 C12.40135552 24.53160031 12.41659477 26.78195916 12.375 29.0625 C12.36484863 29.88395508 12.35469727 30.70541016 12.34423828 31.55175781 C11.92339812 48.45713549 7.96504402 66.42267227 -4 79 C-4.59425781 79.64582031 -5.18851563 80.29164063 -5.80078125 80.95703125 C-12.02501023 87.07816741 -19.42536968 89.34648138 -27.9375 90.5625 C-35.94059715 90.10854281 -44.04827364 86.16773272 -50 81 C-49.25752466 76.17391028 -46.38978244 72.38978244 -43 69 C-41.07540043 68.53544148 -39.1504024 68.07241726 -37.22265625 67.62109375 C-31.05177017 65.89671609 -26.11489033 62.96207363 -22 58 C-19.32462319 52.44126656 -19.2529925 47.05469239 -20 41 C-21.92878357 35.5276373 -25.57018157 31.81034317 -30.55078125 28.9453125 C-34.58552295 27.38804377 -38.78350933 27.11011487 -43.0546875 26.58984375 C-45.92745083 26.01452908 -47.23644767 25.56144181 -49.3125 23.5625 C-51 21 -51 21 -51 18 C-49.39125 17.443125 -49.39125 17.443125 -47.75 16.875 C-43.7022826 15.12153538 -41.99543003 12.99086007 -40 9 C-40 7.845 -40 6.69 -40 5.5 C-39 2 -39 2 -36.41796875 0.2578125 C-24.21186518 -5.91165702 -11.94319681 -8.1410555 0 0 Z " fill="#EC6A98" transform="translate(223,118)"/>
<path d="M0 0 C6.13354904 4.99242363 10.06154239 11.03863425 12.4375 18.5625 C13.44530294 29.14443088 12.45174697 39.10196764 5.4375 47.625 C-0.78568859 54.04850582 -8.32428403 58.43434056 -17.375 58.625 C-26.54243026 58.43833287 -34.24513378 55.80199879 -40.75 49.1875 C-45.68797537 43.01245356 -49.42397133 34.9972151 -49.8125 27 C-48.35021292 15.85006103 -44.11800971 7.612921 -35.28515625 0.5078125 C-23.98919873 -7.05265016 -11.67849802 -6.39012156 0 0 Z " fill="#ED6B99" transform="translate(156.3125,140.8125)"/>
<path d="M0 0 C3.34003399 1.59612244 5.32407837 3.64815673 7 7 C7.41182549 10.62406431 7.04349515 12.88473784 5.75 16.3125 C1.95259454 20.02360079 -1.16033543 19.7620624 -6.3203125 19.89453125 C-8.97261616 19.81476998 -8.97261616 19.81476998 -11 21 C-18.07308378 21.57040998 -18.07308378 21.57040998 -21.4375 19.5 C-23.59516319 16.0477389 -24.32141835 13.06868592 -24 9 C-19.32243983 -0.91642757 -9.82222399 -1.27863271 0 0 Z " fill="#F8F8F8" transform="translate(119,112)"/>
<path d="M0 0 C4.53194029 1.78656398 7.30530637 3.95795955 10 8 C10.46797583 12.21178243 10.46565795 14.28599114 8.125 17.875 C5.53402685 20.46597315 4.72184649 20.95392469 1.0625 21.1875 C-2 21 -2 21 -5 19 C-7.38455198 18.90825354 -7.38455198 18.90825354 -9.9375 19.125 C-14.67805849 19.23556696 -14.67805849 19.23556696 -17.5625 17.125 C-19.99599957 13.52765282 -20.5052939 11.37921382 -20 7 C-15.02426782 -1.03914937 -8.80832914 -0.93530683 0 0 Z " fill="#F7F7F7" transform="translate(170,111)"/>
<path d="M0 0 C4.31779848 1.09477649 6.34155695 4.6421633 8.73828125 8.11328125 C9.92578125 10.48828125 9.92578125 10.48828125 9.92578125 13.48828125 C9.23871094 13.38128906 8.55164063 13.27429687 7.84375 13.1640625 C6.94269531 13.04417969 6.04164063 12.92429687 5.11328125 12.80078125 C4.21996094 12.67316406 3.32664063 12.54554687 2.40625 12.4140625 C-0.10801548 12.25727687 -0.10801548 12.25727687 -1.87109375 13.78515625 C-3.74705599 16.44073916 -3.52556782 18.32883773 -3.07421875 21.48828125 C-1.19919944 23.86547818 -1.19919944 23.86547818 0.92578125 25.48828125 C0.59578125 26.47828125 0.26578125 27.46828125 -0.07421875 28.48828125 C-4.13807803 29.84290101 -7.82957053 30.13953594 -12.07421875 29.48828125 C-14.8511897 27.38862029 -15.78293577 25.91108659 -16.48046875 22.50390625 C-17.03931514 14.62417221 -13.31245927 8.5129306 -8.76171875 2.36328125 C-5.61991593 0.17132579 -3.76983933 -0.24848282 0 0 Z " fill="#E96A97" transform="translate(151.07421875,22.51171875)"/>
<path d="M0 0 C4.79568962 -0.33523267 8.74648115 -0.56531242 13.1875 1.4375 C15.15770117 4.22295682 15.32364159 4.96558403 15.1875 8.25 C14.08681956 14.60249856 10.44891333 18.99063522 5.5625 23 C2.08114463 24.3585777 -0.29394529 24.52943639 -4 24 C-6.9375 21.625 -6.9375 21.625 -9 19 C-9 18.34 -9 17.68 -9 17 C-6.70370006 15.85185003 -4.92301914 15.69230191 -2.375 15.4375 C-1.55773437 15.35371094 -0.74046875 15.26992188 0.1015625 15.18359375 C0.72804687 15.12300781 1.35453125 15.06242187 2 15 C2.85650653 12.19954954 2.85650653 12.19954954 3 9 C1.68733482 7.64631404 0.35432675 6.31200404 -1 5 C-0.75 2.25 -0.75 2.25 0 0 Z " fill="#E76996" transform="translate(178,43)"/>
<path d="M0 0 C-0.10954408 3.62564187 -0.2402496 7.25021431 -0.375 10.875 C-0.42140625 12.42380859 -0.42140625 12.42380859 -0.46875 14.00390625 C-0.52675781 15.48310547 -0.52675781 15.48310547 -0.5859375 16.9921875 C-0.6173584 17.90339355 -0.6487793 18.81459961 -0.68115234 19.75341797 C-1 22 -1 22 -3 24 C-6.06432153 24 -8.14944557 23.77590471 -10.46875 21.66015625 C-13.21725985 18.39230587 -14.85834624 16.03204882 -15.4375 11.8125 C-14.86024036 6.78209455 -12.65900216 4.35566519 -9 1 C-6.04335481 -0.4783226 -3.25770263 -0.06032783 0 0 Z " fill="#E46894" transform="translate(95,150)"/>
<path d="M0 0 C2.92678915 4.05973979 3.11591525 7.1247411 3 12 C-10.45703617 15.00534094 -10.45703617 15.00534094 -16.375 11.625 C-17.60867193 10.78610309 -18.8284177 9.92362837 -20 9 C-20 7.35 -20 5.7 -20 4 C-13.16157289 0.35170762 -7.8727556 -2.18687655 0 0 Z " fill="#F4F4F5" transform="translate(185,26)"/>
<path d="M0 0 C2.9375 1.5 2.9375 1.5 5 4 C5.78631447 8.95378117 5.78352545 10.82471182 3 15 C-1.17528818 17.78352545 -3.04621883 17.78631447 -8 17 C-11.24985922 14.31886615 -11.89575014 12.64866582 -12.5625 8.5 C-12 5 -12 5 -9.9375 2.0625 C-6.2404927 -0.53327109 -4.43355658 -0.71253588 0 0 Z " fill="#EA6B98" transform="translate(168,40)"/>
<path d="M0 0 C6 0 6 0 8.9375 1.9375 C11.4661588 5.69217519 11.41927196 7.56190956 10.64453125 11.90625 C9.72499465 14.8933507 8.63185612 16.31853637 6 18 C4.35 18 2.7 18 1 18 C0.67 12.06 0.34 6.12 0 0 Z " fill="#E66A95" transform="translate(182,157)"/>
<path d="M0 0 C2.0625 1.1875 2.0625 1.1875 3 3 C2.75546876 6.34192692 2.39456443 7.60543557 0 10 C-6.98383372 10.55427252 -6.98383372 10.55427252 -10.0625 8.875 C-11.495401 6.009198 -10.84910305 4.00451848 -10 1 C-6.81538141 -0.5923093 -3.46608511 -0.38905037 0 0 Z " fill="#25201B" transform="translate(140,94)"/>
<path d="M0 0 C0.0825 0.61875 0.165 1.2375 0.25 1.875 C0.4975 2.57625 0.745 3.2775 1 4 C1.66 4.28875 2.32 4.5775 3 4.875 C5 6 5 6 5.875 8.9375 C6 12 6 12 4 15 C1.8359375 15.29296875 1.8359375 15.29296875 -0.625 15.1875 C-1.44226563 15.16042969 -2.25953125 15.13335937 -3.1015625 15.10546875 C-3.72804687 15.07066406 -4.35453125 15.03585938 -5 15 C-5.625 13.1875 -5.625 13.1875 -6 11 C-5.34 10.01 -4.68 9.02 -4 8 C-3.60986284 6.0103005 -3.26797351 4.00980131 -3 2 C-2.34 2.66 -1.68 3.32 -1 4 C-0.67 2.68 -0.34 1.36 0 0 Z " fill="#14070A" transform="translate(176,44)"/>
<path d="M0 0 C4.04352289 0.46656033 8.01928836 1.15560662 12 2 C12 2.66 12 3.32 12 4 C12.66 4.66 13.32 5.32 14 6 C12.88625 6.350625 11.7725 6.70125 10.625 7.0625 C8.66818521 7.80330632 8.66818521 7.80330632 7 9 C5.46954015 12.55892288 5.46954015 12.55892288 5 16 C4.67 16 4.34 16 4 16 C4 14.35 4 12.7 4 11 C2.68 11 1.36 11 0 11 C-0.625 8.1875 -0.625 8.1875 -1 5 C-0.34 4.01 0.32 3.02 1 2 C0.34 1.67 -0.32 1.34 -1 1 C-0.67 0.67 -0.34 0.34 0 0 Z " fill="#13080A" transform="translate(151,34)"/>
<path d="M0 0 C4.55555556 0.55555556 4.55555556 0.55555556 6 2 C6.35897436 8.46153846 6.35897436 8.46153846 4 12 C1.625 11.6875 1.625 11.6875 -1 11 C-3 8 -3 8 -2.75 4.9375 C-2 2 -2 2 0 0 Z " fill="#141414" transform="translate(164,83)"/>
<path d="M0 0 C4.55555556 0.55555556 4.55555556 0.55555556 6 2 C6.35897436 8.46153846 6.35897436 8.46153846 4 12 C-0.875 11.125 -0.875 11.125 -2 10 C-2.27314815 4.26388889 -2.27314815 4.26388889 -2 2 C-1.34 1.34 -0.68 0.68 0 0 Z " fill="#0E0E0E" transform="translate(103,83)"/>
<path d="M0 0 C0.7940625 -0.01417969 1.588125 -0.02835938 2.40625 -0.04296875 C4.5 0.1875 4.5 0.1875 6.5 2.1875 C6.125 5.3125 6.125 5.3125 5.5 8.1875 C1.00003317 8.62867322 -0.84611117 8.71617608 -4.4375 5.8125 C-6.5 3.1875 -6.5 3.1875 -6.5 1.1875 C-4.14653604 0.01076802 -2.6193967 0.02126134 0 0 Z " fill="#D9648D" transform="translate(175.5,58.8125)"/>
<path d="M0 0 C2 1.25 2 1.25 3 3 C3 4.32 3 5.64 3 7 C2.01 7 1.02 7 0 7 C-0.66 5.68 -1.32 4.36 -2 3 C-5.93075644 3.57452746 -5.93075644 3.57452746 -9 6 C-9.33 4.35 -9.66 2.7 -10 1 C-6.81857548 -0.59071226 -3.46336466 -0.39662254 0 0 Z " fill="#100C0B" transform="translate(140,94)"/>
<path d="M0 0 C0.33 0.99 0.66 1.98 1 3 C1.99 3 2.98 3 4 3 C4.66 5.64 5.32 8.28 6 11 C4.02 11.99 4.02 11.99 2 13 C-0.20914 9.68629 -0.22481553 8.6553979 -0.125 4.8125 C-0.10695313 3.91144531 -0.08890625 3.01039062 -0.0703125 2.08203125 C-0.04710938 1.39496094 -0.02390625 0.70789063 0 0 Z " fill="#150C0E" transform="translate(91,119)"/>
<path d="M0 0 C2.4375 1 2.4375 1 4 2 C3.505 2.474375 3.01 2.94875 2.5 3.4375 C0.88457803 4.75923698 0.88457803 4.75923698 1 6 C-1.31 6 -3.62 6 -6 6 C-5.01 5.67 -4.02 5.34 -3 5 C-3 4.34 -3 3.68 -3 3 C-5.31 3 -7.62 3 -10 3 C-7.29121075 -0.82417306 -4.40070559 -0.38602681 0 0 Z " fill="#313231" transform="translate(152,17)"/>
<path d="M0 0 C0.66 0 1.32 0 2 0 C2.33 0.99 2.66 1.98 3 3 C4.65 3.33 6.3 3.66 8 4 C8 4.33 8 4.66 8 5 C-1.405 5.495 -1.405 5.495 -11 6 C-10.67 5.01 -10.34 4.02 -10 3 C-9.34 3 -8.68 3 -8 3 C-8 2.67 -8 2.34 -8 2 C-5.36 2 -2.72 2 0 2 C0 1.34 0 0.68 0 0 Z " fill="#4D4D4D" transform="translate(206,93)"/>
<path d="M0 0 C2.475 0.99 2.475 0.99 5 2 C4.67 3.65 4.34 5.3 4 7 C1.03 7 -1.94 7 -5 7 C-3.68 6.34 -2.36 5.68 -1 5 C-0.18828772 2.44480079 -0.18828772 2.44480079 0 0 Z " fill="#5A2A39" transform="translate(176,52)"/>
<path d="M0 0 C1.67542976 0.28604898 3.34385343 0.61781233 5 1 C5 2.32 5 3.64 5 5 C3.02 5 1.04 5 -1 5 C-1 1 -1 1 0 0 Z " fill="#DDA62B" transform="translate(134,96)"/>
<path d="M0 0 C0.99 0.33 1.98 0.66 3 1 C3.33 2.65 3.66 4.3 4 6 C2.68 6.33 1.36 6.66 0 7 C0 6.34 0 5.68 0 5 C-1.32 4.34 -2.64 3.68 -4 3 C-4 2.34 -4 1.68 -4 1 C-2.68 1.33 -1.36 1.66 0 2 C0 1.34 0 0.68 0 0 Z " fill="#4D303B" transform="translate(184,219)"/>
<path d="M0 0 C0 0.66 0 1.32 0 2 C-3 3 -6 4 -9 5 C-9 4.34 -9 3.68 -9 3 C-9.66 2.67 -10.32 2.34 -11 2 C-7.17010894 0.19769832 -4.21878192 -0.19622241 0 0 Z " fill="#D9668E" transform="translate(58,108)"/>
<path d="M0 0 C1.65 0 3.3 0 5 0 C4 2 3 4 2 6 C1.01 5.67 0.02 5.34 -1 5 C-0.67 3.35 -0.34 1.7 0 0 Z " fill="#C65E81" transform="translate(151,38)"/>
<path d="M0 0 C0.33 0.66 0.66 1.32 1 2 C0.38511719 2.03738281 -0.22976562 2.07476562 -0.86328125 2.11328125 C-2.07564453 2.21189453 -2.07564453 2.21189453 -3.3125 2.3125 C-4.11300781 2.37050781 -4.91351563 2.42851562 -5.73828125 2.48828125 C-8.36272334 3.08206694 -9.30820672 3.95780294 -11 6 C-11.66 5.34 -12.32 4.68 -13 4 C-8.48649253 0.47726246 -5.71658336 -0.45732667 0 0 Z " fill="#5C444D" transform="translate(175,232)"/>
<path d="M0 0 C-3.47385433 2.31590289 -4.96430006 2.26991835 -9.0625 2.25 C-10.12597656 2.25515625 -11.18945312 2.2603125 -12.28515625 2.265625 C-15 2 -15 2 -17 0 C-14.72979256 -0.19493195 -12.45879711 -0.38070418 -10.1875 -0.5625 C-8.92292969 -0.66691406 -7.65835938 -0.77132812 -6.35546875 -0.87890625 C-3 -1 -3 -1 0 0 Z " fill="#5C3C48" transform="translate(210,221)"/>
<path d="M0 0 C3.70129644 0.38961015 5.61879622 1.11749016 8 4 C4.625 4.1875 4.625 4.1875 1 4 C0.34 3.01 -0.32 2.02 -1 1 C-0.67 0.67 -0.34 0.34 0 0 Z " fill="#DAA8BD" transform="translate(158,208)"/>
<path d="M0 0 C-0.66 1.98 -1.32 3.96 -2 6 C-3.65 5.67 -5.3 5.34 -7 5 C-5.22678182 1.07358831 -4.52021524 0 0 0 Z " fill="#E16692" transform="translate(164,40)"/>
<path d="M0 0 C0.66 0.33 1.32 0.66 2 1 C-0.31 3.97 -2.62 6.94 -5 10 C-5.33 9.34 -5.66 8.68 -6 8 C-4.02 5.36 -2.04 2.72 0 0 Z " fill="#D2638A" transform="translate(41,114)"/>
<path d="M0 0 C2.33944736 0.28730055 4.6739143 0.61936779 7 1 C6.01 1.495 6.01 1.495 5 2 C5 2.66 5 3.32 5 4 C3.68 4 2.36 4 1 4 C1 3.34 1 2.68 1 2 C0.34 1.67 -0.32 1.34 -1 1 C-0.67 0.67 -0.34 0.34 0 0 Z " fill="#270E15" transform="translate(151,34)"/>
<path d="M0 0 C3.0466145 1.01553817 5.31143836 2.20762558 8 4 C4.7 3.67 1.4 3.34 -2 3 C-2 2.34 -2 1.68 -2 1 C-1.34 0.67 -0.68 0.34 0 0 Z " fill="#D6648C" transform="translate(93,134)"/>
<path d="M0 0 C-1 2 -1 2 -4.0625 3.125 C-5.5165625 3.558125 -5.5165625 3.558125 -7 4 C-7.33 3.01 -7.66 2.02 -8 1 C-5.29120665 -0.35439668 -2.99066732 -0.06501451 0 0 Z " fill="#EB6D99" transform="translate(178,60)"/>
<path d="M0 0 C0.99 0 1.98 0 3 0 C3 1.32 3 2.64 3 4 C0.69 4 -1.62 4 -4 4 C-3.01 3.67 -2.02 3.34 -1 3 C-0.67 2.01 -0.34 1.02 0 0 Z " fill="#2A151B" transform="translate(150,19)"/>
<path d="M0 0 C0 0.66 0 1.32 0 2 C-1.98 2.33 -3.96 2.66 -6 3 C-6 2.34 -6 1.68 -6 1 C-3 0 -3 0 0 0 Z " fill="#542B37" transform="translate(174,235)"/>
<path d="M0 0 C0.66 0 1.32 0 2 0 C2 0.66 2 1.32 2 2 C1.34 2 0.68 2 0 2 C0 1.34 0 0.68 0 0 Z " fill="#994161" transform="translate(158,224)"/>
<path d="M0 0 C2 1 2 1 2 1 Z " fill="#8C6F7A" transform="translate(193,223)"/>
<path d="" fill="#7C4D60" transform="translate(0,0)"/>
<path d="" fill="#AC637D" transform="translate(0,0)"/>
<path d="" fill="#764759" transform="translate(0,0)"/>
<path d="" fill="#B8748C" transform="translate(0,0)"/>
<path d="" fill="#C47292" transform="translate(0,0)"/>
<path d="" fill="#895165" transform="translate(0,0)"/>
<path d="" fill="#8B566A" transform="translate(0,0)"/>
<path d="" fill="#EC71A0" transform="translate(0,0)"/>
<path d="" fill="#A1617A" transform="translate(0,0)"/>
<path d="" fill="#BD6689" transform="translate(0,0)"/>
<path d="" fill="#734356" transform="translate(0,0)"/>
<path d="" fill="#E184A8" transform="translate(0,0)"/>
<path d="" fill="#D97EA2" transform="translate(0,0)"/>
<path d="" fill="#7F495E" transform="translate(0,0)"/>
<path d="" fill="#A86982" transform="translate(0,0)"/>
</svg>
